<?xml version="1.0" encoding="utf-8"?>
<!-- Generator: Adobe Illustrator 23.0.0, SVG Export Plug-In . SVG Version: 6.00 Build 0)  -->
<svg version="1.1" id="Capa_1" xmlns="http://www.w3.org/2000/svg" xmlns:xlink="http://www.w3.org/1999/xlink" x="0px" y="0px"
	 viewBox="0 0 612 612" style="enable-background:new 0 0 612 612;" xml:space="preserve">
<style type="text/css">
	.st0{fill:#FFFFFF;}
</style>
<g>
	<path class="st0" d="M329.9,99.4c0-10.1,9.9-18.2,22.2-18.2c10.2,0,18.7,5.7,21.3,13.4c0.3,0,0.6-0.1,0.9-0.1
		c9.2,0,16.7,6.1,16.7,13.7c0,1.8-0.5,3.6-1.3,5.2l0,0c5.7,0,10.3,3.8,10.3,8.5c0,4.7-4.6,8.5-10.3,8.5c-5.7,0-10.3-3.8-10.3-8.5
		c0-0.3,0.1-0.5,0.1-0.7c-1.6,0.4-3.4,0.7-5.2,0.7c-5.6,0-10.5-2.3-13.5-5.7c-2.7,0.9-5.6,1.5-8.7,1.5
		C339.8,117.7,329.9,109.5,329.9,99.4z M340,189.8h-30.4c-5.3,0-9.7,3.6-9.7,7.9v53.1l94.5-37.2l94.5,37.2v-53.1
		c0-4.4-4.3-7.9-9.7-7.9h-30.4 M448.9,181.8V177c0-4.4-4.3-7.9-9.7-7.9h-23.4l-4.2-31.6h-34.4l-4.2,31.6h-23.4
		c-5.3,0-9.7,3.6-9.7,7.9v4.9H448.9z M394.4,222.4L254,277.7l41.6,99.7c19.3-7.4,44.1-14.3,69.5-14.3c40.9,0,73.7,16,116.9,24.1h7.2
		l45.7-109.6L394.4,222.4z"/>
</g>
<rect x="91.8" y="429" transform="matrix(0.7744 0.6327 -0.6327 0.7744 350.1603 42.9882)" class="st0" width="46" height="167"/>
<polygon class="st0" points="216,394 110.8,404.9 226.4,499.3 "/>
</svg>
