<?xml version="1.0" encoding="utf-8"?>
<!-- Generator: Adobe Illustrator 23.0.0, SVG Export Plug-In . SVG Version: 6.00 Build 0)  -->
<svg version="1.1" id="Capa_1" xmlns="http://www.w3.org/2000/svg" xmlns:xlink="http://www.w3.org/1999/xlink" x="0px" y="0px"
	 viewBox="0 0 31.1 31.1" style="enable-background:new 0 0 31.1 31.1;" xml:space="preserve">
<style type="text/css">
	.st0{fill:#FFFFFF;}
</style>
<g>
	<path class="st0" d="M21.2,5.6c0-3.1-2-5.6-5.7-5.6C11.9,0,10,2.5,10,5.6v1.3h11.2L21.2,5.6L21.2,5.6z"/>
	<path class="st0" d="M15.6,20c3.7,0,5.7-2.5,5.7-5.6V7.9H10v6.6C10,17.5,11.9,20,15.6,20z"/>
	<path class="st0" d="M23.3,6.7v7.8c0,4.3-2.9,7.8-7.8,7.8s-7.8-3.5-7.8-7.8V6.7c-1.2-1.2-2.2,0-2.2,0v7.8c0,0,0,0,0,0
		c0,5.1,3.9,9.4,8.9,9.9v3.5l-4.4,0l-1.1,3.3h13l-1.1-3.3l-4.1,0v-3.5c5-0.6,8.9-4.8,8.9-9.9h0V6.7C24.2,5.3,23.3,6.7,23.3,6.7z"/>
</g>
</svg>
